<svg
  class="label-layout-format"
  version="1.1"
  xmlns="http://www.w3.org/2000/svg"
  xmlns:xlink="http://www.w3.org/1999/xlink"
  [attr.width]="labelLayout.dimensions.pageWidth"
  [attr.height]="labelLayout.dimensions.pageHeight"
  [attr.viewBox]="'0 0 ' + width + ' ' + height"
>
  <defs>
    <g id="dmr_fill_line">
      <line x1="0" y1="0" x2="0" y2="3" stroke-width="0.3" stroke="#000000" />
      <line x1="0" y1="1.5" x2="2" y2="1.5" stroke-width="0.3" stroke="#000000" />
      <text x="7" y="2.25" fill="#000000">MAX FILL</text>
      <text x="26" y="2.25" fill="#000000">MIN FILL</text>
      <line x1="31" y1="1.5" x2="33" y2="1.5" stroke-width="0.3" stroke="#000000" />
      <line x1="33" y1="0" x2="33" y2="3" stroke-width="0.3" stroke="#000000" />
    </g>
    <g id="up_arrow">
      <g transform="translate(2.5, 2)">
        <g transform="translate(-2.5, -2) scale(0.1)">
          <path d="M 0,0 H 24 V 24 H 0 Z" style="fill:none"/>
          <path d="M 20,11 H 7.83 L 13.42,5.41 12,4 4,12 12,20 13.41,18.59 7.83,13 H 20 Z" />
        </g>
        <text x="1" y="0">UP</text>
      </g>
    </g>
  </defs>

  <g [attr.transform]="'translate(' + marginHorizontal + ', ' + marginVertical + ')'">
    <rect
      class="label-layout-border"
      fill="#FFFFFF"
      stroke="#CCCCCC"
      stroke-width="0.2"
      [attr.width]="widthMinusMargins"
      [attr.height]="heightMinusMargins"
      x="0"
      y="0"
      rx="2"
    />
    <use xlink:href="#up_arrow" x="2" y="2" />
    <use xlink:href="#up_arrow" x="2" [attr.y]="heightMinusMargins - 4" />
    <use
      xlink:href="#dmr_fill_line"
      [attr.x]="8"
      [attr.y]="0"
    />
    <use
      xlink:href="#dmr_fill_line"
      [attr.x]="8"
      [attr.y]="heightMinusMargins - 3"
    />
    <g transform="translate(3, 9.5)">
      <g
        appBarcodeSvg
        format="datamatrixrectangular"
        [value]="sample.barcode"
        [width]="36"
        [height]="12"
        transform="scale(0.175)"
      />
    </g>
    <g transform="translate(24, 11.5)">
      <text x="0" y="0" style="font-size: 2.7px; text-anchor: start; text-align: left;">
        #{{sample.student_id}}
      </text>
      <text x="0" y="2" style="font-size: 2.7px; text-anchor: start; text-align: left;">
        {{sample.date | date:'yyyy-MM-dd HH:mm'}}
      </text>
      <text x="0" y="4" style="font-size: 2.7px; text-anchor: start; text-align: left;">
        {{sample.location}}  {{sample.initials}}
      </text>
    </g>
  </g>
</svg>
